<svg width="1243" height="403" viewBox="0 0 1243 403" fill="none" xmlns="http://www.w3.org/2000/svg">
<path d="M1192.39 133.742V113.431C1192.39 112.508 1191.63 111.752 1190.71 111.752H1164.86C1151.77 111.752 1141.19 122.37 1141.19 135.421V153.718H1125.66C1124.74 153.718 1123.98 154.473 1123.98 155.396V175.707C1123.98 176.63 1124.74 177.386 1125.66 177.386H1141.19V275.332C1141.19 276.256 1141.95 277.011 1142.87 277.011H1167.5C1168.43 277.011 1169.18 276.256 1169.18 275.332V177.386H1190.75C1191.67 177.386 1192.43 176.63 1192.43 175.707V155.396C1192.43 154.473 1191.67 153.718 1190.75 153.718H1169.18V135.421H1190.75C1191.67 135.421 1192.43 134.665 1192.43 133.742H1192.39Z" fill="#05010F"/>
<path d="M451.493 215.448C451.493 173.483 477.554 151.115 505.083 151.115C521.869 151.115 536.263 158.879 545.957 173.063V155.144C545.957 154.221 546.712 153.465 547.635 153.465H572.269C573.192 153.465 573.947 154.221 573.947 155.144V275.332C573.947 276.255 573.192 277.011 572.269 277.011H547.635C546.712 277.011 545.957 276.255 545.957 275.332V260.434C536.934 272.898 523.379 279.57 506.803 279.57C474.28 279.57 451.493 253.3 451.493 215.448V215.448ZM545.957 215.448C545.957 191.779 532.402 175.833 512.804 175.833C493.206 175.833 480.071 191.989 480.071 215.238C480.071 238.487 493.626 254.853 513.014 254.853C532.402 254.853 545.957 238.906 545.957 215.448Z" fill="#5B10FF"/>
<path d="M852.096 215.448C852.096 173.483 878.156 151.116 905.685 151.116C922.471 151.116 936.907 158.879 946.559 173.064V119.013C946.559 118.089 947.315 117.334 948.238 117.334H972.871C973.794 117.334 974.55 118.089 974.55 119.013V275.333C974.55 276.256 973.794 277.011 972.871 277.011H948.238C947.315 277.011 946.559 276.256 946.559 275.333V260.435C937.537 272.899 923.982 279.571 907.406 279.571C874.925 279.571 852.096 253.301 852.096 215.448ZM946.559 215.448C946.559 191.78 933.004 175.833 913.407 175.833C893.809 175.833 880.674 191.99 880.674 215.239C880.674 238.487 894.229 254.854 913.617 254.854C933.004 254.854 946.559 238.907 946.559 215.448V215.448Z" fill="#05010F"/>
<path d="M1214.17 138.024V113.39C1214.17 112.467 1214.92 111.711 1215.85 111.711H1240.48C1241.4 111.711 1242.16 112.467 1242.16 113.39V138.024C1242.16 138.947 1241.4 139.702 1240.48 139.702H1215.85C1214.92 139.702 1214.17 138.947 1214.17 138.024ZM1214.17 275.333V155.355C1214.17 154.432 1214.92 153.677 1215.85 153.677H1240.48C1241.4 153.677 1242.16 154.432 1242.16 155.355V275.291C1242.16 276.215 1241.4 276.97 1240.48 276.97H1215.85C1214.92 276.97 1214.17 276.215 1214.17 275.291V275.333Z" fill="#05010F"/>
<path d="M627.075 119.013C627.075 118.089 626.319 117.334 625.396 117.334H600.763C599.839 117.334 599.084 118.089 599.084 119.013V275.333C599.084 276.256 599.839 277.011 600.763 277.011H625.396C626.319 277.011 627.075 276.256 627.075 275.333V231.185C627.075 227.786 629.257 224.765 632.446 223.632C635.636 222.499 639.203 223.548 641.301 226.191L682.595 275.794C683.224 276.55 684.189 277.011 685.154 277.011H714.362C715.789 277.011 716.544 275.333 715.663 274.241L663.626 211.923L707.27 156.403C708.151 155.312 707.354 153.676 705.969 153.676H678.524C677.517 153.676 676.552 154.137 675.922 154.935L641.301 197.655C639.203 200.299 635.636 201.306 632.446 200.215C629.257 199.082 627.117 196.06 627.117 192.703V119.013H627.075Z" fill="#5B10FF"/>
<path d="M1054.83 151.116C1017.6 151.116 993.475 176.925 993.475 215.449C993.475 253.973 1018.65 279.571 1055.67 279.571C1080.85 279.571 1100.11 267.276 1109.63 245.118C1110.01 244.195 1109.55 243.104 1108.63 242.81L1086.43 235.046C1085.59 234.753 1084.66 235.214 1084.33 236.054C1079.75 248.349 1069.85 255.232 1056.09 255.232C1036.74 255.232 1023.4 241.467 1022.72 223.17H1111.94C1112.82 223.17 1113.62 222.457 1113.66 221.534C1116.39 178.561 1093.27 151.074 1054.79 151.074L1054.83 151.116ZM1023.86 200.593C1026 185.318 1037.83 175.204 1054.62 175.204C1071.4 175.204 1082.61 185.108 1084.54 200.593H1023.86V200.593Z" fill="#05010F"/>
<path d="M777.103 151.116C739.88 151.116 715.75 176.925 715.75 215.449C715.75 253.973 740.929 279.571 777.942 279.571C803.121 279.571 822.383 267.276 831.909 245.118C832.287 244.195 831.825 243.104 830.902 242.81L808.703 235.046C807.863 234.753 806.94 235.214 806.604 236.054C802.03 248.349 792.126 255.232 778.362 255.232C759.016 255.232 745.671 241.467 745 223.17H834.217C835.099 223.17 835.896 222.457 835.938 221.534C838.666 178.561 815.543 151.074 777.061 151.074L777.103 151.116ZM746.133 200.593C748.273 185.318 760.107 175.204 776.893 175.204C793.679 175.204 804.884 185.108 806.814 200.593H746.133Z" fill="#5B10FF"/>
<path d="M381.12 254.854C360.683 254.854 347.548 239.369 347.548 215.239C347.548 191.109 360.683 175.834 380.91 175.834C395.304 175.834 405.208 183.513 409.279 197.572C409.53 198.495 410.496 199.04 411.377 198.705L434.542 190.605C435.423 190.312 435.926 189.262 435.591 188.381C426.862 165.049 407.138 151.074 380.239 151.074C343.855 151.074 318.886 177.344 318.886 215.197C318.886 253.049 344.275 279.529 380.658 279.529C406.97 279.529 426.065 266.562 435.339 242.222C435.675 241.341 435.213 240.292 434.29 239.998L411.335 231.941C410.454 231.605 409.488 232.151 409.237 233.074C405.124 247.09 395.262 254.77 381.078 254.77L381.12 254.854Z" fill="#5B10FF"/>
<path d="M131.512 217.253C146.493 212.007 146.493 190.815 131.512 185.569L27.942 149.353C19.3391 146.332 9.64517 150.696 6.79155 159.383C-1.89523 185.569 -2.56667 214.693 6.62368 242.935C9.51928 251.832 19.1293 256.574 27.9839 253.51L131.554 217.253H131.512Z" fill="#5B10FF"/>
<path d="M150.855 68.1494C106.876 62.8618 66.5053 78.8925 38.6405 107.261C35.1574 110.786 36.4583 116.787 41.1584 118.424L58.9936 124.676C63.274 126.187 68.058 125.558 71.5831 122.746C89.6281 108.31 112.709 99.917 137.804 100.798C189.841 102.603 233.023 145.659 234.911 197.696C237.01 255.02 191.142 302.189 134.279 302.189C110.653 302.189 89.0406 294.006 71.8769 280.367C68.3518 277.555 63.6937 276.548 59.4552 278.059L41.1584 284.479C36.4583 286.116 35.1154 292.075 38.5985 295.642C62.9383 320.402 96.8041 335.803 134.279 335.803C213.509 335.803 276.708 267.19 267.728 186.155C260.93 124.97 211.872 75.4513 150.855 68.1494Z" fill="#5B10FF"/>
</svg>
